<svg width="130" height="287" viewBox="-1 -1 130 287" xmlns="http://www.w3.org/2000/svg" version="1.2" style="background-color: white">
    <title>Nespresso shelf</title>
    <polygon points="
        3,275
        3,265 0,265 0,245 3,245
        3,210 0,210 0,180 3,180
        3,145 0,145 0,115 3,115
        3,80 0,80 0,50 3,50
        3,20 0,20 0,0 3,0
        125,0 128,0 128,20 125,20
        125,50 128,50 128,80 125,80
        125,115 128,115 128,145 125,145
        125,180 128,180 128,210 125,210
        125,245 128,245 128,265 125,265
        125,275
        100,275 100,272 85,272 85,275 43,275 43,272 28,272 28,275
        " stroke="#f00" stroke-width="0.001pt" fill="none" />
</svg>

